<?xml version="1.0" standalone="no"?>
<!DOCTYPE svg PUBLIC "-//W3C//DTD SVG 20010904//EN"
 "http://www.w3.org/TR/2001/REC-SVG-20010904/DTD/svg10.dtd">
<svg version="1.0" xmlns="http://www.w3.org/2000/svg"
 width="928.000000pt" height="928.000000pt" viewBox="0 0 928.000000 928.000000"
 preserveAspectRatio="xMidYMid meet">
<metadata>
Created by potrace 1.11, written by Peter Selinger 2001-2013
</metadata>
<g transform="translate(0.000000,928.000000) scale(0.100000,-0.100000)"
fill="#000000" stroke="none">
<path d="M33 8067 c-12 -5 -24 -19 -27 -31 -3 -11 -6 -1222 -6 -2689 l0 -2668
24 -24 24 -24 451 -1 c463 0 480 1 507 39 8 10 12 75 12 189 0 95 2 176 5 178
4 5 26 -11 71 -51 6 -5 34 -28 61 -50 28 -22 55 -43 60 -48 35 -29 165 -116
165 -110 0 3 8 -1 18 -9 40 -36 301 -148 375 -162 15 -2 31 -7 35 -10 5 -3 24
-7 43 -10 19 -2 45 -7 59 -10 141 -34 473 -39 650 -10 63 10 75 12 90 18 8 3
26 7 40 10 56 10 269 94 345 137 112 63 184 105 206 123 14 12 37 28 49 36 13
8 31 22 39 30 9 8 34 28 55 44 34 26 195 184 221 218 6 7 27 33 46 58 62 76
155 222 202 316 25 49 45 91 45 94 0 3 9 23 21 45 11 22 21 43 21 46 0 4 8 24
17 45 9 22 18 44 19 49 1 6 11 35 22 65 37 105 19 137 -120 210 -156 80 -291
155 -313 172 -5 5 -39 27 -75 51 -111 72 -168 117 -280 223 -41 40 -85 75 -97
78 -20 6 -23 4 -24 -21 -2 -77 -10 -142 -24 -203 -3 -14 -7 -36 -10 -50 -3
-14 -7 -36 -10 -50 -3 -14 -8 -36 -11 -50 -3 -14 -14 -54 -26 -90 -12 -36 -21
-67 -20 -70 0 -3 -3 -9 -8 -15 -4 -5 -22 -37 -40 -70 -131 -239 -328 -409
-560 -484 -113 -36 -215 -49 -365 -46 -140 3 -159 5 -225 20 -19 5 -42 9 -50
10 -8 1 -22 5 -30 8 -8 3 -40 14 -70 25 -279 101 -513 360 -614 681 -14 44
-27 91 -30 103 -2 13 -7 40 -11 61 -11 58 -14 104 -14 212 0 280 54 498 172
695 12 19 24 37 27 40 3 3 13 17 23 32 60 95 234 241 367 308 72 36 178 77
225 86 247 49 462 28 670 -66 264 -118 445 -325 575 -655 28 -72 94 -203 109
-215 3 -3 20 -25 36 -50 68 -101 284 -291 427 -375 139 -82 347 -194 553 -299
66 -34 122 -63 125 -66 3 -3 39 -22 80 -43 181 -92 186 -95 241 -152 61 -61
75 -156 35 -233 -20 -40 -87 -97 -127 -111 -120 -39 -299 -31 -404 18 -62 28
-97 31 -119 8 -7 -6 -50 -68 -95 -137 -131 -195 -271 -377 -366 -473 l-87 -89
28 -29 c15 -16 30 -27 32 -24 3 3 13 -1 21 -9 31 -28 217 -114 311 -145 124
-40 201 -56 325 -67 64 -6 327 -5 365 1 19 3 55 8 80 11 24 2 72 12 105 20 33
9 65 17 70 19 6 1 17 4 25 7 8 3 38 14 65 23 66 24 205 98 267 143 105 75 192
160 273 267 54 72 130 205 117 205 -4 0 -2 4 3 8 18 13 79 198 70 213 -3 4 -2
10 3 13 4 2 9 19 11 38 7 53 6 269 -1 313 -16 111 -68 271 -116 357 -11 19
-26 46 -34 59 -7 13 -15 26 -18 29 -3 3 -19 25 -35 50 -49 72 -232 251 -340
331 -85 63 -170 117 -313 200 -33 19 -195 106 -237 127 -170 85 -476 275 -527
326 -70 71 -100 187 -71 273 16 48 87 131 136 162 32 20 109 48 156 58 28 6
196 6 221 0 101 -25 155 -44 240 -85 73 -35 277 -159 313 -190 9 -8 20 -12 25
-8 4 4 8 240 9 524 3 578 4 565 -65 596 -57 25 -190 57 -297 72 -108 15 -474
8 -555 -11 -14 -4 -36 -8 -50 -11 -14 -2 -34 -5 -45 -7 -11 -2 -27 -7 -35 -10
-8 -4 -26 -8 -40 -11 -90 -15 -393 -135 -420 -165 -7 -8 -170 -115 -197 -130
-20 -10 -30 -6 -85 34 -35 25 -68 48 -74 52 -45 33 -261 141 -314 158 -3 1
-12 4 -20 8 -85 35 -238 71 -395 93 -69 10 -368 10 -435 0 -131 -19 -353 -80
-418 -116 -9 -5 -48 -25 -87 -43 -102 -51 -245 -137 -281 -172 -6 -5 -23 -19
-38 -30 -32 -23 -90 -71 -119 -98 -10 -10 -21 -16 -24 -13 -3 2 -5 406 -4 896
l1 891 -26 24 -25 23 -457 -1 c-265 0 -467 -4 -479 -10z"/>
<path d="M7198 6724 c-3 -2 -33 -6 -69 -9 -72 -6 -85 -8 -114 -18 -11 -3 -37
-8 -57 -11 -51 -8 -274 -82 -288 -96 -3 -3 -32 -19 -65 -35 -33 -17 -64 -34
-70 -38 -5 -4 -53 -36 -105 -70 -52 -34 -97 -64 -100 -67 -9 -11 -172 -120
-178 -120 -4 0 -6 73 -6 162 2 177 -2 193 -51 204 -34 8 -869 8 -900 0 -11 -2
-23 -5 -26 -5 -26 -4 -30 -72 -29 -600 1 -300 1 -688 0 -861 -1 -307 3 -380
21 -380 5 0 8 -3 7 -7 -3 -9 21 -56 32 -63 30 -21 148 -128 208 -190 111 -113
225 -294 267 -425 9 -27 18 -56 20 -63 5 -15 6 -17 17 -62 18 -79 22 -132 22
-285 0 -165 -3 -197 -29 -300 -8 -33 -17 -67 -19 -75 -9 -36 -58 -147 -90
-204 -76 -136 -218 -298 -351 -402 -109 -85 -102 -27 -104 -791 l-2 -663 25
-25 25 -25 465 3 c366 1 468 5 478 15 10 10 13 184 15 880 1 477 2 884 2 905
1 29 4 36 15 30 12 -7 98 -79 130 -108 63 -58 205 -150 325 -210 87 -44 292
-118 356 -129 17 -3 55 -10 85 -16 149 -29 461 -31 605 -5 17 3 46 8 65 11 68
12 78 14 161 39 46 14 89 27 94 29 6 2 21 7 35 12 23 7 191 91 235 117 156 94
385 292 486 421 13 16 34 41 46 55 76 81 216 322 277 476 16 39 32 79 36 90
19 46 57 180 66 235 3 14 7 33 10 42 7 25 13 58 19 109 3 25 8 56 10 70 19 95
26 529 11 654 -12 95 -35 225 -51 285 -8 30 -12 56 -10 59 3 2 1 9 -4 15 -5 6
-18 43 -30 83 -12 40 -38 109 -58 155 -19 46 -40 95 -46 111 -6 15 -15 27 -19
27 -4 0 -8 9 -8 20 0 11 -4 20 -10 20 -5 0 -10 5 -10 10 0 16 -105 181 -163
257 -81 104 -94 119 -201 226 -151 150 -343 287 -521 371 -22 10 -48 23 -58
28 -21 10 -181 69 -185 68 -1 -1 -26 5 -55 14 -56 16 -141 33 -203 42 -47 7
-381 14 -386 8z m62 -938 c42 -3 109 -15 150 -26 41 -11 84 -23 95 -25 52 -12
195 -87 273 -143 71 -50 169 -148 209 -208 15 -21 29 -41 32 -44 4 -3 15 -23
26 -45 11 -22 23 -42 26 -45 7 -6 42 -82 62 -137 20 -52 54 -184 62 -243 4
-24 8 -47 10 -50 1 -3 6 -25 9 -50 3 -25 8 -56 11 -70 14 -68 13 -121 -9 -270
-12 -79 -35 -176 -54 -220 -8 -19 -14 -37 -14 -40 0 -29 -67 -157 -125 -241
-98 -142 -281 -298 -421 -360 -26 -11 -56 -24 -67 -29 -35 -17 -165 -49 -223
-56 -66 -8 -204 -9 -247 -1 -16 3 -47 8 -67 11 -21 3 -57 11 -80 16 -24 6 -53
13 -66 16 -71 15 -199 74 -307 142 -58 37 -186 167 -236 242 -37 54 -90 151
-95 170 0 3 -6 19 -13 35 -29 67 -59 170 -67 230 -2 16 -6 41 -10 55 -25 108
-25 387 0 510 17 81 51 200 58 200 4 0 8 7 8 15 0 26 75 166 126 235 75 102
143 170 265 263 63 47 266 131 349 143 19 3 41 7 48 9 7 3 50 8 95 11 45 4 84
8 85 10 2 1 9 1 15 -1 7 -2 46 -6 87 -9z"/>
</g>
</svg>
